# xmcd
#
# Track frame offsets: 
#        183
#        17805
#        38783
#        60295
#        77233
#        105355
#        125450
#        143310
#        175063
#        194820
#        208888
#        258938
#
# Disc length: 3814 seconds
#
# Revision: 3
# Processed by: cddbd v1.5.2PL0 Copyright (c) Steve Scherf et al.
# Submitted via: ExactAudioCopyFreeDBPlugin 1.0
#
DISCID=9d0ee40c
DTITLE=Nina Simone - The Great Show Of Nina Simone, Live In Paris
DYEAR=1988
DGENRE=Blues
TTITLE0=Intro and Devils Workshop
TTITLE1=Just In Time
TTITLE2=When I Was A Young Girl
TTITLE3=Don't Let Me Be Misunderstood
TTITLE4=Ne Me Quitte Pas
TTITLE5=To Love Somebody
TTITLE6=Backlash Blues
TTITLE7=House Of The Rising Sun
TTITLE8=See-Line Woman
TTITLE9=Please Read Me
TTITLE10=Life
TTITLE11=Gin House Blues
EXTD=
EXTT0=
EXTT1=
EXTT2=
EXTT3=
EXTT4=
EXTT5=
EXTT6=
EXTT7=
EXTT8=
EXTT9=
EXTT10=
EXTT11=
PLAYORDER=
